# xmcd
#
# Track frame offsets:
#	150
#	11638
#	21143
#	33514
#	44426
#	55820
#	69507
#	80935
#	94744
#	106461
#	122029
#	136725
#	148621
#	160631
#	173377
#	186234
#	199210
#	213110
#	223763
#	237787
#	254465
#	268439
#	287335
#	301358
#	313327
#	328360
#
# Disc length: 4540 seconds
# Revision: 0
# Processed by: cddbd v1.5.2PL0 Copyright (c) Steve Scherf et al.
# Submitted via: dBpowerAMP V12.0
#
DISCID=8511ba1a
DTITLE=slim dusty - Odds and Sodds CD5 1974-1999
DYEAR=2017
DGENRE=Country
TTITLE0=Anywhere I Go
TTITLE1=I'll Come Around
TTITLE2=My People
TTITLE3=Spannish Pipedream
TTITLE4=Talk QAbout The Good Times
TTITLE5=Althea
TTITLE6=This Country Of Mine
TTITLE7=Closest Thing To Freedom
TTITLE8=You're Still On My Mind
TTITLE9=I Don't Sleep At Night
TTITLE10=Carry My Own Guitar
TTITLE11=Coming Down The Barkly
TTITLE12=Goldrush Country
TTITLE13=The Pub That Doesn't Sell Beer
TTITLE14=Kilometres Are Still Miles To Me 
TTITLE15=The Boxing Kangaroo
TTITLE16=God Will Prevail
TTITLE17=Where I'd Sooner Be
TTITLE18=Larrikin's Landing
TTITLE19=Mad Joe The Fisherman
TTITLE20=I Need To Find A Place
TTITLE21=Mitchell Grass
TTITLE22=The Drovers Are Back
TTITLE23=Another Night In Broome
TTITLE24=Morning Comes Early
TTITLE25=Leaving Only dust
EXTD=
EXTT0=
EXTT1=
EXTT2=
EXTT3=
EXTT4=
EXTT5=
EXTT6=
EXTT7=
EXTT8=
EXTT9=
EXTT10=
EXTT11=
EXTT12=
EXTT13=
EXTT14=
EXTT15=
EXTT16=
EXTT17=
EXTT18=
EXTT19=
EXTT20=
EXTT21=
EXTT22=
EXTT23=
EXTT24=
EXTT25=
PLAYORDER=
